<svg width="98" height="98" viewBox="0 0 98 98" fill="none" xmlns="http://www.w3.org/2000/svg">
<g clip-path="url(#clip0)">
<path d="M40.5252 17.5178L39.6777 16.9893C39.0562 16.8932 38.4443 16.8483 37.7958 16.8483H27.4388C20.5263 16.8483 14.9227 22.4519 14.9227 29.3643V39.0334H40.5252V17.5178Z" fill="#D5985C"/>
<path d="M39.6779 16.9893V39.0333H50.312V29.3642C50.312 23.0915 45.6974 17.8971 39.6779 16.9893Z" fill="#C38959"/>
<path d="M48.095 97.967C51.482 97.967 54.2275 95.2215 54.2275 91.8346V82.0273C54.2275 76.0977 50.2556 70.9031 44.5335 69.3487L29.116 65.1608H25.1117L9.69415 69.3487C3.97187 70.9031 0 76.0977 0 82.0273V91.8346C0 95.2215 2.74553 97.967 6.13247 97.967H48.095Z" fill="#41E6B3"/>
<path d="M55.5409 69.3487L40.1233 65.1605H27.6486L43.0661 69.3487C48.7884 70.9031 52.7601 76.0977 52.7601 82.0272V91.8345C52.7601 95.2214 50.0146 97.967 46.6276 97.967H59.1023C62.4893 97.967 65.2348 95.2214 65.2348 91.8345V82.0272C65.2348 76.0977 61.2631 70.9031 55.5409 69.3487V69.3487Z" fill="#05A692"/>
<path d="M40.1231 65.1605V57.2556H25.1117V65.1605C25.1117 69.3058 32.6175 70.9547 32.6175 70.9547C32.6175 70.9547 40.1231 69.3058 40.1231 65.1605V65.1605Z" fill="#FFDDCE"/>
<path d="M32.6172 70.9548L36.3932 74.2207C37.5662 75.2352 39.3076 75.2298 40.4742 74.2081L48.2759 67.3753L45.949 63.8957C45.1445 62.6927 43.4866 62.4284 42.3479 63.3217L32.6172 70.9548Z" fill="#3ACC9F"/>
<path d="M32.6173 70.9548L28.8412 74.2207C27.6683 75.2352 25.9268 75.2298 24.7602 74.2081L16.9585 67.3753L19.2854 63.8957C20.0899 62.6927 21.7479 62.4284 22.8865 63.3217L32.6173 70.9548Z" fill="#3ACC9F"/>
<path d="M9.36707 97.967H12.3247V89.3937C12.3247 88.5768 11.6626 87.9149 10.8459 87.9149C10.0291 87.9149 9.36707 88.577 9.36707 89.3937V97.967Z" fill="#05A692"/>
<path d="M81.2038 0.0332031H62.0196C59.3133 0.0332031 57.1194 2.2271 57.1194 4.93339V24.0614C57.1194 26.7677 59.3133 28.9616 62.0196 28.9616H64.6154L66.0351 29.6363H73.5637L75.1587 28.9616H81.2036C83.9098 28.9614 86.1033 26.7675 86.1033 24.0614V4.93339C86.1035 2.2271 83.9099 0.0333945 81.2038 0.0332031V0.0332031Z" fill="#B1E4F9"/>
<path d="M65.0012 30.0262L62.9156 39.7497C62.7994 40.2911 63.4603 40.6504 63.8518 40.2586L74.3422 29.7527C74.848 29.246 75.5344 28.9614 76.2503 28.9614H64.1408C64.7008 28.9614 65.1187 29.4782 65.0012 30.0262V30.0262Z" fill="#90D8F9"/>
<path d="M93.0998 0.0332031H80.677C83.3833 0.0332031 85.5772 2.2271 85.5772 4.93339V24.0614C85.5772 26.7677 83.3833 28.9616 80.677 28.9616H93.0998C95.8061 28.9616 98 26.7677 98 24.0614V4.93339C98 2.2271 95.8061 0.0332031 93.0998 0.0332031V0.0332031Z" fill="#90D8F9"/>
<path d="M88.7354 11.0254H66.5005C65.6838 11.0254 65.0217 10.3633 65.0217 9.54655C65.0217 8.72982 65.6838 8.06775 66.5005 8.06775H88.7352C89.552 8.06775 90.214 8.72982 90.214 9.54655C90.214 10.3633 89.5522 11.0254 88.7354 11.0254Z" fill="#F0F7FF"/>
<path d="M88.7354 20.1786H66.5005C65.6838 20.1786 65.0217 19.5165 65.0217 18.6998C65.0217 17.883 65.6838 17.2209 66.5005 17.2209H88.7352C89.552 17.2209 90.214 17.883 90.214 18.6998C90.214 19.5165 89.5522 20.1786 88.7354 20.1786Z" fill="#F0F7FF"/>
<path d="M21.033 38.0178H15.386C14.1137 38.0178 13.0824 39.0491 13.0824 40.3214V42.9689C13.0824 44.241 14.1137 45.2725 15.386 45.2725H21.033V38.0178Z" fill="#FFDDCE"/>
<path d="M49.8492 38.0178H44.2021V45.2723H49.8492C51.1215 45.2723 52.1528 44.241 52.1528 42.9687V40.3212C52.1526 39.0491 51.1213 38.0178 49.8492 38.0178V38.0178Z" fill="#FFCBBE"/>
<path d="M40.5252 45.4142V29.0006C40.3736 29.0413 40.224 29.0903 40.0798 29.1548C35.3328 31.2852 29.9018 31.2852 25.1547 29.1548C24.7723 28.9832 24.3577 28.8945 23.9384 28.8945C22.2976 28.8945 20.9675 30.2246 20.9675 31.8653V34.9847C20.9675 36.6599 19.6095 38.0179 17.9343 38.0179V45.0469C17.9343 52.4065 23.3492 58.5007 30.4119 59.5645C36.2942 57.5506 40.5252 51.9787 40.5252 45.4142V45.4142Z" fill="#FFDDCE"/>
<path d="M44.2668 34.9844V31.8651C44.2668 30.2244 42.9367 28.8943 41.296 28.8943C40.8768 28.8943 40.4622 28.9831 40.0796 29.1548C39.9462 29.2147 39.812 29.2723 39.6775 29.3288V45.0467C39.6775 51.8372 35.0667 57.5484 28.8058 59.227C30.0216 59.553 31.2985 59.7294 32.6171 59.7294C40.7262 59.7294 47.2998 53.1558 47.2998 45.0467V38.0177C45.6248 38.0177 44.2668 36.6596 44.2668 34.9844V34.9844Z" fill="#FFCBBE"/>
</g>
<defs>
<clipPath id="clip0">
<rect width="98" height="98" fill="white"/>
</clipPath>
</defs>
</svg>
