<svg width="91" height="91" viewBox="0 0 91 91" fill="none" xmlns="http://www.w3.org/2000/svg">
<path d="M45.0683 90.1367C69.9589 90.1367 90.1367 69.9589 90.1367 45.0683C90.1367 20.1778 69.9589 0 45.0683 0C20.1778 0 0 20.1778 0 45.0683C0 69.9589 20.1778 90.1367 45.0683 90.1367Z" fill="#E6333D"/>
<path d="M45.0684 0C43.9275 0 42.797 0.0432148 41.6775 0.126523C64.9841 1.86039 83.3549 21.3185 83.3549 45.0683C83.3549 68.8182 64.9841 88.2763 41.6775 90.0101C42.797 90.0935 43.9275 90.1367 45.0684 90.1367C69.9591 90.1367 90.137 69.959 90.137 45.0683C90.137 20.1776 69.9591 0 45.0684 0V0Z" fill="#B32730"/>
<path d="M56.6094 32.9482L37.1976 43.8019C35.0198 45.0197 34.9699 43.4347 34.9699 40.9271V23.1005L38.5145 20.958L55.0665 29.9074L56.6094 32.9482Z" fill="white"/>
<path d="M56.37 30.6156L55.0219 29.8857L44.7973 35.4198C42.0062 36.9304 38.5763 34.9641 38.5763 31.8539V20.9853L36.9428 20.1011C34.7633 18.9213 32.0846 20.4568 32.0846 22.8861V43.9154C32.0846 46.3443 34.7629 47.8799 36.9424 46.7001L56.3693 36.1856C58.6128 34.9714 58.6128 31.8294 56.37 30.6156V30.6156Z" fill="#FFE6E7"/>
<path d="M36.6227 65.5416V67.0956H30.6937V56.9736H32.5767V65.5416H36.6227ZM40.4571 67.0956H38.5671V56.9736H40.4571V67.0956ZM51.9964 56.9736L47.9084 67.0956H46.2074L42.1194 56.9736H43.6314C43.7947 56.9736 43.9277 57.0132 44.0304 57.0926C44.1331 57.1719 44.2101 57.2746 44.2614 57.4006L46.6484 63.5746C46.7277 63.7752 46.8024 63.9969 46.8724 64.2396C46.9471 64.4776 47.0171 64.7272 47.0824 64.9886C47.1384 64.7272 47.1991 64.4776 47.2644 64.2396C47.3297 63.9969 47.4021 63.7752 47.4814 63.5746L49.8544 57.4006C49.8917 57.2932 49.9641 57.1952 50.0714 57.1066C50.1834 57.0179 50.3187 56.9736 50.4774 56.9736H51.9964ZM55.5341 58.4716V61.2786H59.0761V62.7276H55.5341V65.5906H60.0281V67.0956H53.6441V56.9736H60.0281V58.4716H55.5341Z" fill="white"/>
</svg>
