<svg width="189" height="372" viewBox="0 0 189 372" fill="none" xmlns="http://www.w3.org/2000/svg">
<path d="M69.0679 88.6416C65.973 89.6738 63.3939 92.2542 62.0184 95.1787C61.8465 95.6948 61.6746 96.0388 61.6746 96.5549C61.6746 97.071 61.8465 97.4151 62.0184 97.9312C62.3623 98.7913 62.5342 99.8235 62.8781 100.684C63.222 101.716 63.5659 102.576 64.2536 103.436C64.9414 104.296 65.973 104.64 66.6607 103.78C67.5204 102.92 68.2082 101.716 68.724 100.684C69.9276 98.2752 70.4434 95.6948 70.2714 92.9423C70.2714 91.7381 69.9276 90.7059 69.5837 89.5017" fill="#38326D"/>
<path d="M97.9533 25.5071C95.3743 27.0553 89.1845 28.7756 88.6687 30.1519C88.1529 31.5281 93.4829 33.5924 96.2339 34.7966" fill="#F6A388"/>
<path d="M147.815 129.584C145.924 115.306 136.296 103.608 127.011 92.7703C139.906 99.3074 149.363 112.382 151.598 126.832" fill="#8883E5"/>
<path d="M129.762 95.5226C129.246 95.1785 129.59 94.6624 129.246 93.9743C127.871 90.5338 125.979 86.4051 127.355 82.9645C127.871 81.7603 128.558 80.7281 129.418 79.696C130.106 78.8358 130.794 78.1477 131.825 77.4596C133.717 76.4274 136.124 76.5994 138.187 77.6316C140.25 78.4917 141.798 80.04 143.345 81.5883C139.906 80.7281 136.124 80.5561 132.685 81.0722C134.748 81.4162 136.639 82.2764 138.359 83.6526C135.78 84.3407 132.685 82.4484 130.278 83.8246C131.481 84.3407 132.513 84.8568 133.717 85.3729C132.169 85.3729 130.965 86.7491 130.278 88.1254C129.246 89.8456 130.278 91.5659 129.762 93.6303" fill="#8883E5"/>
<path d="M128.73 93.9744C129.762 90.0177 133.716 87.0932 137.843 86.7492C141.969 86.4051 146.096 88.2974 148.847 91.3939C151.598 94.4905 153.317 98.4471 153.833 102.576C152.802 102.232 152.114 101.372 151.598 100.511C148.675 96.7268 144.892 93.4583 140.25 92.5981C141.454 94.6625 142.141 96.8989 142.657 99.1352C141.11 96.5548 139.046 94.4905 136.639 92.7702C137.499 94.4905 138.187 96.0387 139.046 97.759C136.295 94.8345 133.373 95.0066 129.418 95.1786" fill="#8883E5"/>
<path d="M111.708 231.598C111.708 231.081 111.708 230.737 111.708 230.393C111.708 229.533 111.536 228.673 111.365 227.641C109.817 219.212 106.894 202.181 106.894 202.181C106.894 202.181 106.722 224.888 107.582 231.942C108.098 235.898 108.098 241.747 108.098 247.252C109.301 242.607 110.505 237.275 111.708 231.598Z" fill="#191960"/>
<path d="M183.063 137.498C183.063 137.498 187.533 136.81 188.221 139.218C188.909 141.626 188.565 159.861 188.393 161.926C188.221 163.99 184.266 166.915 179.108 168.291C179.796 156.249 183.063 137.498 183.063 137.498Z" fill="#FFC043"/>
<path d="M174.638 121.499C174.638 121.499 181.515 121.843 183.234 125.628C184.782 129.412 184.61 161.926 183.406 165.538C182.203 168.979 176.013 168.979 164.149 172.248C171.027 160.722 171.715 155.733 171.715 153.84C171.543 151.604 174.638 121.499 174.638 121.499Z" fill="#E0902F"/>
<path d="M166.557 72.2988C166.557 72.2988 172.574 78.6639 175.497 89.3297C178.42 99.9954 179.452 111.865 179.28 112.554C179.108 113.242 173.262 114.274 172.746 114.102C172.231 114.102 166.557 72.2988 166.557 72.2988Z" fill="#FFC043"/>
<path d="M89.3567 61.6331C91.9358 56.3002 106.379 52.6876 118.414 53.3757C128.043 54.0638 137.671 56.3002 146.956 59.3967C151.426 60.7729 155.897 61.9771 160.023 64.0415C165.009 66.6219 167.244 70.5786 168.792 75.7394C173.434 91.222 174.81 107.221 175.325 123.219C175.841 136.122 176.185 149.196 175.154 162.098C174.982 165.022 174.982 173.968 171.543 175.344C164.665 178.269 153.317 179.473 148.159 178.957C145.236 178.613 145.236 163.818 145.064 161.926C144.377 150.744 144.205 139.39 144.205 128.036C144.033 114.102 144.377 100.168 143.345 86.2332C143.001 80.5562 139.391 81.5884 134.92 81.0723C131.309 80.5562 127.527 80.0401 123.916 79.352C118.07 78.3199 84.1986 72.987 89.3567 61.6331Z" fill="#FFDA40"/>
<path d="M150.223 127.004L151.254 170.527C151.254 173.796 153.833 176.204 156.584 176.032C159.851 175.86 163.634 175.344 167.073 174.484C169.308 173.968 171.027 172.076 171.543 169.495C173.09 160.722 174.466 147.647 173.262 126.144C173.09 123.219 170.511 121.499 168.104 122.875C159.851 127.176 150.223 127.004 150.223 127.004Z" fill="#FFC043"/>
<path d="M135.952 59.2247C135.952 59.2247 136.124 61.8051 134.576 63.3534C133.717 64.2135 131.997 63.1814 131.997 63.1814C131.997 63.1814 120.305 58.8806 117.726 59.5688C116.007 58.5366 115.491 55.4401 116.007 54.5799C116.523 53.7198 128.387 52.1715 135.952 59.2247Z" fill="#E0902F"/>
<path d="M132.341 55.6119C135.952 57.6763 139.734 59.5686 143.517 61.4609C147.128 63.5253 151.254 65.5896 154.005 68.8582C159.507 75.3953 159.335 85.0289 159.851 92.9422C160.023 94.4904 160.023 96.2107 160.195 97.759C160.195 98.6191 160.367 99.4793 160.367 100.339C160.367 101.544 160.367 102.92 160.711 103.952C160.883 104.296 161.398 104.468 161.57 103.952C161.914 102.92 161.742 101.716 161.57 100.511C161.57 99.6513 161.398 98.7912 161.398 97.931C161.398 96.5548 161.226 95.1786 161.226 93.6303C161.055 89.3296 160.883 85.0289 160.195 80.9002C159.679 76.7715 158.476 72.4708 155.896 69.0302C153.317 65.4176 149.363 63.1812 145.58 61.1169C141.454 58.8805 137.155 56.4721 132.513 54.9238C132.169 55.0959 131.997 55.6119 132.341 55.6119Z" fill="#965C17"/>
<path d="M160.539 102.404C160.367 103.436 160.367 104.468 160.367 105.672C160.367 106.189 160.367 106.705 160.539 107.393C160.539 107.909 160.711 108.425 161.055 108.941C161.399 109.285 161.914 109.457 162.43 109.113C162.774 108.769 163.118 108.425 163.118 107.909C163.29 106.877 163.29 105.844 163.118 104.812C162.946 104.296 162.774 103.78 162.602 103.264C162.43 102.748 162.086 102.06 161.399 101.888C160.883 101.716 160.539 102.06 160.539 102.404C160.711 102.748 160.883 102.92 161.055 103.264C161.227 103.436 161.399 103.608 161.399 103.952C161.571 104.296 161.742 104.812 161.914 105.328C162.086 105.844 162.086 106.361 162.086 106.877C162.086 107.221 162.086 107.737 161.914 108.253L161.742 108.425H161.914L161.742 108.253C161.742 108.081 161.742 108.081 161.571 107.909C161.399 107.393 161.399 106.877 161.399 106.361C161.399 105.156 161.399 104.124 161.399 102.92C161.227 102.06 160.711 101.888 160.539 102.404Z" fill="#965C17"/>
<path d="M44.137 86.0613C57.2042 77.2878 78.3525 69.5465 85.7459 66.106L93.8269 87.7816C81.7913 93.6306 53.7655 105.329 42.7615 105.329C51.8742 102.92 44.137 86.0613 44.137 86.0613Z" fill="#F6A388"/>
<path d="M24.8799 81.4164C17.1427 62.8373 11.9846 42.0218 11.9846 42.0218L16.7989 38.9253C16.7989 38.9253 30.5539 58.3645 40.8701 78.1479C40.8701 78.1479 52.5619 96.727 46.5441 103.952C44.9966 104.984 43.7931 105.5 42.7614 105.328C35.3681 104.124 28.3187 89.3297 24.8799 81.4164Z" fill="#F6A388"/>
<path d="M105.519 46.6665C106.206 50.2791 105.519 54.2358 104.659 57.6764C103.455 61.8051 102.08 61.461 97.9534 61.633C95.3743 61.8051 90.5601 61.633 90.5601 61.633C90.5601 61.633 88.6688 65.7617 88.4968 66.2778C88.3249 66.6219 88.4968 66.9659 88.4968 67.31C89.0126 71.6107 91.5917 75.2233 94.6866 78.1478C96.406 79.8681 98.1253 81.4164 100.361 82.2765C103.799 83.8248 107.926 83.6527 111.708 83.1367C114.803 82.6206 117.898 81.7604 120.821 80.5562C122.197 80.0401 123.572 79.524 124.604 78.4919C127.011 76.4275 127.699 72.987 128.386 69.8904C128.558 68.6862 128.73 67.31 128.214 66.2778C127.871 65.5897 126.495 65.0736 125.807 64.9016C123.4 63.8694 121.337 63.8694 118.93 62.8373C111.88 59.9128 112.74 51.8274 114.803 45.8064" fill="#F6A388"/>
<path d="M97.0938 61.8051C92.2795 61.633 87.8091 62.4932 84.0265 64.2135C72.8506 69.2023 62.1904 76.2555 62.1904 76.2555C62.1904 76.2555 68.7241 76.4275 68.3802 98.9633C68.3802 100.856 67.6924 102.576 65.9731 104.124C73.1944 101.2 85.9178 93.8024 85.9178 93.8024" fill="#55499B"/>
<path d="M126.667 35.8289L115.147 12.9491C101.22 12.2609 92.6234 30.324 89.1847 36.8611C87.9811 39.2695 86.7775 42.366 88.153 44.7744C89.1847 46.8387 91.4198 47.6989 93.4831 48.559C99.5009 50.7954 122.884 56.6444 126.667 35.8289Z" fill="#F6A388"/>
<path d="M126.667 45.2903C131.997 52.3435 143.173 55.6121 150.051 53.0316C153.489 51.6554 153.146 47.5267 152.286 45.9785C148.847 39.6134 144.549 35.8288 138.703 31.012" fill="#55499B"/>
<path d="M125.808 17.0776L113.428 6.41183C110.677 4.69154 107.754 3.31531 104.659 3.14328C101.564 2.97125 98.1256 4.17546 96.4062 6.92792C95.7184 8.13212 95.3746 9.50835 95.7184 10.8846C96.0623 11.7447 96.5781 12.4328 97.2659 13.121C96.7501 13.465 96.2343 13.8091 95.7184 14.3252C95.0307 15.1853 94.6868 16.2175 94.8588 17.4217C95.2026 19.486 97.2659 20.6902 99.1572 21.2063C101.908 22.0664 105.691 22.2385 108.786 21.2063C107.754 23.7867 107.754 28.0875 116.867 29.4637C115.491 29.9798 114.804 31.528 114.975 32.9043C115.147 34.2805 116.523 35.4847 117.898 35.6567C117.211 38.0651 116.523 40.4735 115.835 42.8819C115.491 44.0861 115.147 45.4624 115.491 46.6666C116.007 48.3868 117.555 49.419 119.274 49.9351C121.853 50.7952 128.215 47.1826 129.246 42.8819L125.808 17.0776Z" fill="#452E17"/>
<path d="M108.786 2.11113C115.147 0.390845 132.857 -3.56582 139.563 16.7336C141.97 23.9588 141.97 37.205 131.138 42.7099L122.197 33.2483L108.614 5.72374" fill="#766CD3"/>
<path d="M109.645 1.42285L105.003 2.45502C109.989 17.9376 116.179 34.4524 127.527 46.1503L132.341 43.2258C122.369 33.4202 114.804 15.1852 109.645 1.42285Z" fill="#55499B"/>
<path d="M115.491 36.8609C116.179 36.1728 117.382 36.1728 118.242 36.6889C119.102 37.205 119.618 38.0651 119.618 39.0973C119.618 40.1295 119.446 40.9896 118.93 41.8498C117.898 43.398 116.179 44.6022 114.287 44.4302C112.396 44.4302 110.505 43.054 109.989 41.3337" fill="#F6A388"/>
<path d="M88.8407 314.859C88.8407 314.859 89.8723 335.675 91.4197 347.545C91.4197 347.545 83.3387 355.286 79.2122 357.522C79.2122 357.522 103.283 359.243 101.564 352.706C99.8447 346.169 99.8447 328.794 101.564 314.687" fill="#FFC4C0"/>
<path d="M72.3348 362.855C68.7241 363.888 73.0225 368.876 74.9138 369.049C76.8051 369.393 78.6965 368.704 80.5878 368.188C87.6372 366.296 94.8586 365.092 102.252 364.576C102.768 364.576 103.112 364.576 103.455 364.232C104.659 363.372 104.831 361.823 104.487 361.135C104.143 360.447 103.627 359.759 103.799 358.899" fill="#965C17"/>
<path d="M104.315 358.555C103.799 355.974 104.143 347.201 100.704 348.233C98.6411 351.33 94.6866 352.018 91.7636 349.609C91.4197 349.265 90.0442 345.653 87.981 348.233C85.9177 350.813 83.1667 352.534 79.3841 355.63C77.6647 357.006 70.4434 360.447 70.4434 362.683C70.4434 365.436 71.6469 367.156 74.3979 367.328C77.1489 367.5 81.1035 366.124 83.8545 365.264C89.3565 363.372 95.5462 362.855 101.392 362.511C102.424 362.511 103.455 362.339 104.143 361.479C104.831 360.619 104.487 359.587 104.315 358.555Z" fill="#C98224"/>
<path d="M89.7005 347.545C91.4198 351.674 101.22 353.394 102.08 347.717C102.08 347.373 101.736 346.857 101.392 347.201C99.5009 349.093 97.4377 349.953 94.6867 349.265C92.9673 348.749 91.7637 347.373 90.2163 346.857C89.7005 346.857 89.5285 347.373 89.7005 347.545Z" fill="#965C17"/>
<path d="M80.4158 353.738C81.2755 354.426 81.9632 355.114 82.651 355.974C83.3387 356.662 83.8545 357.695 84.7142 358.211C85.0581 358.383 85.402 358.211 85.402 357.695C85.402 355.458 82.8229 353.566 80.9316 352.878C80.4158 352.706 80.0719 353.394 80.4158 353.738Z" fill="#965C17"/>
<path d="M82.9948 352.19C83.8545 352.534 84.7141 353.222 85.4019 353.91C86.0896 354.598 86.6055 355.286 87.2932 355.802C87.6371 355.974 88.1529 355.974 88.1529 355.458C88.1529 354.426 87.2932 353.222 86.6055 352.534C85.5738 351.674 84.5422 351.502 83.5106 351.158C82.6509 350.986 82.307 352.018 82.9948 352.19Z" fill="#965C17"/>
<path d="M84.8861 350.469C85.9177 350.985 86.7774 351.674 87.6371 352.534C88.3248 353.394 89.0126 354.254 89.8723 354.942C90.2161 355.286 90.7319 354.77 90.7319 354.426C90.7319 351.673 87.6371 349.953 85.4019 349.093C84.7141 348.749 84.0264 350.125 84.8861 350.469Z" fill="#965C17"/>
<path d="M116.179 142.487C125.807 157.797 114.459 228.845 104.315 261.186C110.333 282.174 100.876 331.718 100.876 331.718C100.876 331.718 95.7181 333.094 89.5284 332.062C89.1845 330.686 79.3841 260.842 80.4157 247.424C81.7912 230.049 70.7872 173.796 84.8861 155.905" fill="#262376"/>
<path d="M130.622 318.816C130.622 318.816 133.888 339.287 136.639 350.985C136.639 350.985 129.418 359.587 125.635 362.167C125.635 362.167 149.879 361.307 147.3 354.942C144.892 348.577 143.001 331.374 143.173 317.096" fill="#FFC4C0"/>
<path d="M117.039 365.264C113.428 366.124 117.554 371.285 119.446 371.629C121.337 371.973 123.228 371.457 125.12 371.113C132.169 369.392 139.562 368.532 146.956 368.36C147.472 368.36 147.815 368.36 148.331 368.016C149.707 367.156 149.879 365.78 149.535 364.92C149.191 364.231 148.847 363.543 149.019 362.683" fill="#965C17"/>
<path d="M149.191 362.339C148.675 359.759 149.535 350.985 146.096 351.846C143.861 354.77 139.906 355.458 136.983 352.878C136.639 352.534 135.264 348.921 133.201 351.329C130.965 353.91 128.214 355.458 124.26 358.383C122.369 359.759 115.147 362.683 115.147 365.092C115.147 367.844 116.179 369.564 118.93 369.909C121.681 370.253 125.807 369.048 128.386 368.188C134.06 366.468 140.25 366.296 146.096 366.124C147.128 366.124 148.159 365.952 148.847 365.264C149.535 364.404 149.363 363.371 149.191 362.339Z" fill="#C98224"/>
<path d="M134.92 350.813C136.467 355.114 146.268 357.178 147.3 351.501C147.3 351.157 146.956 350.813 146.612 351.157C144.892 352.706 143.173 353.738 140.594 353.222C138.531 352.878 137.327 351.157 135.436 350.469C135.092 350.125 134.748 350.469 134.92 350.813Z" fill="#965C17"/>
<path d="M125.464 356.662C126.151 357.35 127.011 358.211 127.527 358.899C128.043 359.587 128.559 360.619 129.418 361.135C129.762 361.307 130.278 361.307 130.278 360.791C130.278 358.555 127.871 356.49 125.979 355.802C125.464 355.63 125.12 356.318 125.464 356.662Z" fill="#965C17"/>
<path d="M128.043 355.114C129.934 355.802 130.794 357.694 132.169 358.899C132.513 359.243 133.029 358.899 133.029 358.383C133.029 357.35 132.341 356.318 131.481 355.63C130.622 354.77 129.59 354.426 128.387 354.082C127.871 353.91 127.355 354.942 128.043 355.114Z" fill="#965C17"/>
<path d="M130.106 353.566C131.137 354.082 131.997 354.942 132.685 355.802C133.372 356.662 133.888 357.522 134.748 358.039C135.264 358.383 135.78 358.039 135.78 357.522C135.78 354.942 132.857 353.05 130.793 352.19C129.762 351.673 129.246 353.05 130.106 353.566Z" fill="#965C17"/>
<path d="M139.219 144.551C150.394 158.829 149.879 200.804 140.078 263.939C148.331 284.238 143.517 329.826 143.517 329.826C143.517 329.826 138.359 332.578 132.169 332.234C131.653 330.858 115.319 266.175 114.975 252.757C114.46 235.382 97.4377 180.677 109.645 161.41" fill="#262376"/>
<path d="M80.072 174.14C82.4791 176.548 84.8863 178.957 87.8092 180.677C91.5918 182.913 95.8903 183.773 100.189 184.118C104.487 184.462 108.786 184.462 113.084 185.15C116.351 185.666 119.618 186.354 122.884 186.526C126.151 186.698 129.246 186.354 132.513 186.182C135.264 186.182 138.187 186.182 140.766 184.978C141.626 184.462 142.485 183.773 143.001 182.913C143.861 181.021 143.001 178.785 141.798 176.892C139.39 173.28 135.952 170.699 132.169 168.635C128.386 166.743 124.26 165.366 120.133 164.334" fill="#191960"/>
<path d="M122.369 63.8694C122.541 63.8694 121.681 65.9338 121.509 66.1058C121.165 66.7939 120.649 67.482 120.134 68.1701C117.898 70.9226 114.632 72.987 111.021 73.503C107.238 74.1912 103.456 73.159 100.533 70.9226C99.1572 69.8904 97.9536 68.5142 97.4378 66.7939C97.2659 66.2778 96.2342 61.6331 97.0939 61.6331H90.5603L77.8369 93.4584C78.6966 138.702 77.8369 172.936 77.8369 172.936C85.5741 179.129 91.248 179.473 114.288 181.709C137.327 183.773 142.657 185.15 150.223 177.924C147.987 168.635 151.426 126.832 132.685 83.6527C130.622 78.8359 134.748 72.6429 131.997 67.6541C130.966 66.1058 126.151 65.0736 122.369 63.8694Z" fill="#766CD3"/>
<g opacity="0.25">
<path opacity="0.25" d="M141.11 124.94C143.861 128.896 144.033 132.337 146.612 136.122C145.924 132.165 145.924 128.724 144.892 124.424C144.892 124.424 143.517 122.359 141.97 120.295C140.766 120.983 139.219 120.639 137.327 120.811C134.404 111.349 133.201 110.145 127.699 101.888C127.183 101.2 126.839 100.512 126.323 99.8235C130.966 109.629 133.201 118.059 135.608 126.66C138.015 125.972 138.875 125.972 141.11 124.94Z" fill="#7D67CE"/>
</g>
<path d="M144.377 182.053C141.454 184.806 138.531 187.558 135.78 190.311C135.608 190.483 135.436 190.655 135.436 190.827C135.436 190.999 135.608 191.171 135.608 191.343C137.671 194.611 139.734 197.708 141.97 200.804C142.142 200.976 142.314 201.148 142.485 201.148C142.657 201.148 143.001 200.976 143.173 200.804C144.893 198.74 146.268 196.332 147.644 193.923C147.987 193.407 148.159 192.891 148.503 192.375C148.847 191.515 148.847 190.655 148.847 189.794C148.847 187.042 148.847 184.29 148.503 181.537" fill="#F6A388"/>
<path d="M131.825 185.494C133.373 188.934 135.436 192.375 137.327 195.644C138.359 197.192 139.219 198.74 140.25 200.46C141.282 202.009 142.141 203.901 143.345 205.277C143.689 205.621 144.549 205.277 144.205 204.761C143.517 203.041 142.141 201.492 141.282 199.944C140.25 198.396 139.39 196.848 138.359 195.127C136.296 191.859 134.404 188.59 132.169 185.322C132.169 184.978 131.825 185.322 131.825 185.494Z" fill="#131354"/>
<path d="M131.825 333.782C136.468 333.782 140.594 333.782 144.377 331.202C144.549 329.998 144.549 327.934 144.377 326.385C142.657 326.901 135.264 329.654 130.966 329.31C131.138 331.03 131.481 332.578 131.825 333.782Z" fill="#6479AD"/>
<path d="M88.8408 334.471C93.1393 335.159 97.6096 335.503 101.564 333.61C101.564 332.062 101.564 330.686 101.564 329.138C99.8448 329.482 98.1254 329.654 96.4061 329.998C93.9989 330.514 91.076 330.858 88.6689 330.17C88.4969 331.546 88.6689 333.266 88.8408 334.471Z" fill="#6479AD"/>
<path d="M134.92 113.93C140.938 122.875 147.3 131.649 153.833 140.078C154.521 140.938 155.897 141.798 156.584 140.938C156.756 140.594 156.756 140.25 156.756 139.906C156.584 137.498 155.897 135.089 155.037 132.853C151.082 122.015 146.44 111.349 141.11 101.028" fill="#664624"/>
<path d="M143.001 185.494C145.58 167.259 151.426 140.422 151.426 140.422C151.426 140.422 140.594 115.478 133.201 105.5L148.503 86.2332C156.412 99.8234 170.339 132.509 170.339 138.014C170.339 143.519 158.132 172.936 147.988 188.246" fill="#F6A388"/>
<path d="M139.047 114.962C140.594 117.886 142.142 120.811 143.689 123.907C145.408 123.391 146.784 122.359 148.331 121.155C150.91 119.263 153.317 117.198 155.209 114.618C157.1 112.037 158.304 108.769 157.616 105.672C151.082 107.049 144.721 109.801 139.047 113.586V114.962Z" fill="#E0856C"/>
<path d="M131.825 66.9658C131.825 66.9658 137.671 67.998 142.657 73.3309C147.128 78.1477 154.865 97.5869 158.991 106.016C156.928 110.833 156.069 111.521 152.974 114.274C149.019 118.058 142.829 120.811 137.155 120.983C134.576 113.242 126.151 99.8233 126.151 99.8233" fill="#55499B"/>
<path d="M140.594 66.7939C139.563 65.7618 137.671 63.8695 135.952 64.0415C134.061 64.3855 131.997 65.4177 130.45 66.4499C123.572 71.6108 122.369 81.0723 123.228 89.1577C123.744 93.2864 124.776 97.4151 126.323 101.2C127.011 102.748 127.699 104.468 128.559 105.844C129.762 107.737 132.341 109.973 133.201 112.038C129.762 102.92 129.246 86.4052 132.857 76.0835C134.404 71.7828 137.843 68.8583 140.594 66.7939Z" fill="#E0902F"/>
<path d="M100.017 58.7085C97.0936 61.2889 93.6549 63.5253 91.2477 66.6218C88.6687 69.7183 86.6054 73.3309 84.7141 76.9435C81.2754 84.1687 79.2121 92.0821 78.1805 100.167C77.3208 91.394 76.4611 82.4485 79.0402 74.019C80.4157 69.7183 82.8228 65.7617 86.0896 62.6651C88.4967 60.4288 94.5146 56.1281 98.1252 57.8483" fill="#E0902F"/>
<path d="M104.487 23.7868C105.691 24.4749 106.722 25.3351 107.582 26.5393C107.926 27.0553 108.27 27.7435 108.442 28.4316C108.614 29.1197 108.614 29.8078 108.957 30.4959C108.957 30.6679 109.301 30.6679 109.301 30.4959C109.645 29.8078 109.473 28.9477 109.129 28.2595C108.957 27.5714 108.614 26.8833 108.27 26.1952C107.41 24.991 106.206 23.9588 104.831 23.2707C104.315 23.0987 104.143 23.6148 104.487 23.7868Z" fill="#452E17"/>
<path d="M102.08 28.7755C100.876 29.6357 100.188 30.6679 100.876 31.8721C101.048 32.2161 101.736 32.3881 102.252 32.2161C103.111 31.8721 103.111 31.356 103.627 30.8399C105.003 29.9797 103.455 27.9154 102.08 28.7755Z" fill="#452E17"/>
<path d="M102.08 29.6356C101.736 29.8076 101.564 30.1517 101.736 30.4957C101.736 30.6677 101.908 30.6677 102.08 30.6677C102.252 30.6677 102.252 30.4957 102.424 30.3237C102.768 29.8076 102.424 29.2915 102.08 29.6356Z" fill="white"/>
<path d="M117.726 39.0973C117.726 38.7532 117.726 38.4091 117.383 38.2371C117.039 37.8931 116.695 37.8931 116.351 37.8931C116.007 37.8931 115.663 38.0651 115.319 38.2371C114.975 38.4091 114.804 38.7532 114.804 39.2693C114.804 39.6134 114.804 39.9574 114.632 40.3015C114.46 40.6455 114.288 40.8175 113.944 40.9896C113.6 41.1616 113.256 41.5057 112.912 41.3336C112.568 41.3336 112.568 40.9896 112.396 40.8175C112.224 40.6455 112.053 40.4735 111.881 40.6455C111.537 40.9896 111.537 41.3336 111.709 41.6777C111.881 42.0217 112.224 42.1938 112.74 42.1938C113.6 42.1938 114.288 41.6777 114.975 41.1616C115.319 40.8176 115.491 40.4735 115.491 40.1294C115.491 39.9574 115.491 39.7854 115.491 39.4413C115.491 39.2693 115.491 39.0973 115.491 38.9252C115.491 38.7532 115.491 38.7532 115.663 38.7532C115.835 38.5812 116.007 38.5812 116.179 38.5812C116.523 38.5812 117.039 38.5812 117.039 38.9252C117.211 39.2693 117.726 39.4413 117.726 39.0973Z" fill="#E0856C"/>
<path d="M115.319 44.4302C113.944 44.6022 111.537 44.6022 111.021 43.054C111.021 43.398 111.021 44.2582 111.537 44.9463C111.708 45.2903 112.396 45.6344 112.74 45.8064C113.428 46.1505 114.459 46.3225 115.147 45.9784" fill="#E0856C"/>
<path d="M105.691 50.9673C107.238 50.9673 111.021 50.4512 111.193 50.6232C110.849 51.3114 109.989 51.6554 109.301 51.9995C108.27 52.5156 106.722 52.8596 105.691 53.2037" fill="#E0856C"/>
<path d="M92.1076 35.1406C90.7321 36.6889 90.2163 39.6134 90.7321 41.1616C91.2479 42.5379 92.9673 43.57 94.8586 43.57C97.0938 43.57 99.329 42.5379 101.392 41.5057C97.9535 39.7854 94.8586 37.549 92.1076 35.1406Z" fill="#934747"/>
<path d="M4.07556 23.7866C3.55975 22.5824 2.52812 21.5503 1.15262 19.83C-0.0509431 18.1097 0.292932 17.0775 0.980682 16.7334C1.66843 16.3894 4.41943 19.3139 6.31075 20.8621C8.03012 22.2384 10.6092 26.3671 11.125 27.2272C12.5005 26.5391 14.3918 26.195 14.9076 26.3671C16.2831 26.7111 19.0341 31.3559 19.378 34.1084C19.7219 36.1727 18.5183 41.6776 18.5183 41.6776L19.8938 46.4944C19.8938 46.4944 15.4234 53.3756 14.0479 48.7308C12.5005 44.086 10.9531 42.8818 8.71787 42.3657C6.82656 42.0217 1.49649 37.3769 1.15262 34.7965C1.15262 33.9363 1.84037 33.0762 2.18425 32.7321C2.18425 31.0118 3.73168 30.6678 4.2475 30.4958C4.41943 28.7755 6.13881 28.6034 6.31075 28.6034C6.48268 27.5713 4.59137 24.9908 4.07556 23.7866Z" fill="#F6A388"/>
<path d="M11.4688 27.2273C10.781 27.5714 10.0933 28.0874 9.57745 28.6035C9.23357 28.9476 9.06163 29.1196 8.8897 29.4637C8.71776 29.6357 8.71776 29.8077 8.8897 29.9798C8.8897 30.4958 9.23357 31.0119 9.92132 31.0119C10.4371 31.0119 11.1249 31.0119 11.6407 30.8399C11.9846 30.8399 12.3284 30.6679 12.6723 30.6679C12.8443 30.6679 13.1881 30.4958 13.3601 30.6679C13.3601 30.6679 13.3601 30.6679 13.3601 30.4958C13.1881 31.528 13.7039 32.9043 14.5636 33.4203C14.5636 33.4203 14.7356 33.4203 14.7356 33.2483C14.0478 32.3882 13.532 31.528 13.7039 30.3238V30.1518C13.532 30.1518 13.3601 30.1518 13.1881 30.1518C12.8443 30.1518 12.5004 30.3238 12.3284 30.3238C11.6407 30.4958 10.9529 30.6679 10.2652 30.4958C9.92132 30.4958 9.57745 30.1518 9.57745 29.6357C9.57745 29.4637 9.57745 29.2916 9.57745 29.2916C9.57745 29.1196 9.74938 28.9476 9.92132 28.7756C9.92132 28.4315 10.6091 27.9154 11.4688 27.2273C11.6407 27.3993 11.4688 27.2273 11.4688 27.2273Z" fill="#D1816B"/>
<path d="M4.41936 31.0119C4.76324 32.0441 5.62293 33.2483 6.48261 33.9364C6.65455 34.1084 6.82649 34.2805 7.17036 34.2805C7.51424 34.4525 8.03005 34.4525 8.37393 34.4525C9.40555 34.7966 10.4372 34.9686 11.4688 34.9686C12.3285 34.9686 13.1882 34.6245 13.0162 33.5924C12.8443 32.5602 11.9846 31.7 10.953 31.528C10.7811 31.528 10.7811 31.7 10.953 31.7C11.8127 31.8721 12.6724 32.5602 12.8443 33.5924C13.0162 34.6245 11.9846 34.7966 11.1249 34.7966C10.2652 34.7966 9.40555 34.6245 8.54586 34.4525C8.03005 34.2805 7.3423 34.2805 6.99843 34.1084C5.9668 33.4203 5.10711 32.2161 4.5913 31.184C4.41936 30.8399 4.24743 30.8399 4.41936 31.0119Z" fill="#D1816B"/>
<path d="M2.3562 32.9043C2.52814 33.5925 3.04395 34.4526 3.55976 34.9687C3.90364 35.4848 4.59139 36.1729 5.1072 36.1729C5.79495 36.3449 6.4827 36.5169 6.99852 36.5169C7.68627 36.689 8.54596 36.689 9.23371 36.5169V36.3449C7.8582 36.5169 6.4827 36.3449 5.27914 36.0009C4.76333 36.0009 4.24751 35.4848 3.90364 34.9687C3.38783 34.4526 2.87201 33.5925 2.52814 32.9043C2.52814 32.7323 2.3562 32.9043 2.3562 32.9043Z" fill="#D1816B"/>
<path d="M3.90361 38.4093C4.24749 38.5814 4.59136 38.5814 4.93524 38.5814C5.27911 38.5814 5.62299 38.5814 5.96686 38.5814C6.31074 38.5814 6.82655 38.5814 6.99849 38.4093V38.2373C6.82655 38.2373 6.65461 38.2373 6.48268 38.2373C6.31074 38.2373 6.1388 38.2373 5.96686 38.2373C5.62299 38.2373 5.27911 38.2373 4.93524 38.2373C4.59136 38.4093 4.24749 38.4093 3.90361 38.2373C3.73167 38.2373 3.73167 38.4093 3.90361 38.4093Z" fill="#D1816B"/>
</svg>
